<?xml version="1.0" standalone="no"?>
<!DOCTYPE svg PUBLIC "-//W3C//DTD SVG 20010904//EN"
 "http://www.w3.org/TR/2001/REC-SVG-20010904/DTD/svg10.dtd">
<svg version="1.0" xmlns="http://www.w3.org/2000/svg"
 width="700.000000pt" height="700.000000pt" viewBox="0 0 700.000000 700.000000"
 preserveAspectRatio="xMidYMid meet">
<metadata>
Created by potrace 1.14, written by Peter Selinger 2001-2017
</metadata>
<g transform="translate(0.000000,700.000000) scale(0.100000,-0.100000)"
fill="#000000" stroke="none">
<path d="M3576 6724 c-65 -17 -114 -42 -466 -241 -83 -47 -148 -82 -190 -104
-25 -12 -52 -28 -60 -34 -8 -7 -46 -29 -85 -49 -349 -184 -600 -396 -843 -711
-103 -133 -213 -334 -307 -560 -27 -65 -76 -230 -102 -340 -11 -52 -42 -247
-47 -305 -7 -76 -8 -2254 -1 -2288 9 -50 57 -136 96 -174 23 -22 67 -52 98
-67 47 -22 69 -26 141 -25 107 1 77 -12 485 216 94 52 206 114 250 138 44 23
85 46 90 50 6 4 35 21 65 38 30 16 75 41 100 54 25 14 72 40 105 58 33 18 70
40 83 48 l22 14 1 -948 c1 -522 2 -960 3 -974 18 -187 186 -326 373 -307 63 7
155 49 352 164 25 14 68 38 95 53 60 32 139 76 181 100 17 10 50 29 75 42 25
14 128 71 230 128 102 57 208 115 235 130 28 15 66 36 85 47 19 11 106 59 194
108 224 125 327 205 442 345 132 159 213 353 248 590 3 19 6 567 6 1216 0 978
-2 1192 -14 1240 -58 243 -218 416 -460 496 -79 26 -238 32 -327 11 -93 -21
-130 -39 -446 -215 -157 -87 -287 -158 -289 -158 -2 0 -5 442 -6 983 l-3 982
-26 55 c-34 70 -70 112 -128 149 -81 51 -170 67 -255 45z m111 -2178 l2 -686
-22 -24 c-18 -20 -267 -166 -282 -166 -16 0 -156 -100 -197 -141 -87 -87 -156
-229 -172 -354 -3 -22 -5 -119 -6 -216 l0 -176 -102 -57 c-165 -91 -226 -124
-353 -196 -66 -37 -151 -84 -190 -105 -38 -21 -74 -41 -80 -45 -5 -4 -39 -23
-75 -42 -94 -51 -322 -177 -340 -188 -35 -23 -65 -31 -80 -22 -13 8 -15 87
-15 613 0 575 3 675 27 779 5 25 11 52 13 60 26 117 96 304 157 420 39 74 137
227 161 252 7 7 24 29 39 48 74 99 249 258 372 338 93 61 75 51 341 198 127
70 246 136 265 147 437 247 495 276 515 263 20 -13 20 -23 22 -700z m1355
-1092 c61 -20 123 -75 156 -138 l27 -51 0 -675 c0 -623 -1 -680 -18 -745 -21
-79 -104 -256 -139 -297 -13 -15 -39 -45 -58 -68 -57 -69 -147 -134 -321 -230
-350 -196 -1246 -694 -1288 -716 -53 -29 -67 -30 -80 -7 -5 11 -9 429 -10
1049 l0 1031 157 87 c86 47 182 100 212 117 55 31 409 228 465 259 17 9 95 53
175 97 80 44 165 92 190 105 25 14 104 58 175 98 72 40 148 79 170 86 55 18
133 17 187 -2z"/>
</g>
</svg>
