<?xml version="1.0" encoding="utf-8"?>
<svg width="11.516113px" height="11.209473px" viewBox="0 0 11.516113 11.209473" version="1.1" xmlns:xlink="http://www.w3.org/1999/xlink" xmlns="http://www.w3.org/2000/svg">
  <path d="M4.62085 10.7095C4.91943 10.7095 5.17749 10.5728 5.37085 10.2744L10.7903 1.78223C10.9114 1.60498 11.0161 1.38721 11.0161 1.19336C11.0161 0.766113 10.6372 0.5 10.2419 0.5C10.0081 0.5 9.77417 0.637207 9.59668 0.911133L4.58057 8.88721L1.91138 5.54053C1.70166 5.27441 1.48389 5.17725 1.22583 5.17725C0.830566 5.17725 0.5 5.4917 0.5 5.91943C0.5 6.12109 0.580566 6.33887 0.717773 6.5083L3.83057 10.2822C4.08057 10.5889 4.32251 10.7095 4.62085 10.7095Z" id="Selected-Copy" fill="#FFFFFF" fill-rule="evenodd" stroke="none" />
</svg>