<?xml version="1.0" encoding="utf-8"?>
<svg width="184px" height="57.916016px" viewBox="0 0 184 57.916016" version="1.1" xmlns:xlink="http://www.w3.org/1999/xlink" xmlns="http://www.w3.org/2000/svg">
  <g id="Group-Copy">
    <path d="M20.6587 21.729L20.6587 1.76426C20.6587 1.45696 20.5785 1.15498 20.4258 0.88824C20.2733 0.621497 20.0537 0.399225 19.7888 0.24346C19.524 0.087671 19.2229 0.0038145 18.9156 0.000125363C18.6084 -0.00354 18.3055 0.0731083 18.0369 0.222496L10.6213 4.34445C7.40183 6.13385 4.71936 8.75155 2.85185 11.9264C0.984334 15.1012 -0.000268436 18.7176 0 22.4009L0 33.2128L20.6587 21.729L20.6587 21.729Z" id="Shape" fill="#44C3D2" stroke="none" />
    <path d="M14.3547 25.228L27.9252 17.6903C28.6521 17.2861 29.4721 17.0787 30.3038 17.0887C31.1358 17.0987 31.9504 17.3258 32.6675 17.7474C33.3844 18.169 33.9791 18.7705 34.3923 19.4925C34.8055 20.2145 35.0229 21.0318 35.0232 21.8635L35.0232 36.7094L14.3621 48.1932L14.3547 25.228L14.3547 25.228Z" id="Shape" fill="#44C3D2" stroke="none" />
    <path d="M14.3547 36.1862L14.3547 56.1534C14.3555 56.4605 14.4361 56.762 14.5888 57.0284C14.7415 57.2947 14.9612 57.5165 15.2258 57.6722C15.4904 57.8278 15.7912 57.9119 16.0981 57.9158C16.405 57.9199 16.7079 57.8437 16.9765 57.6951L30.2366 50.3333C31.6855 49.5292 32.8928 48.352 33.7331 46.9238C34.5736 45.4957 35.0163 43.8686 35.0158 42.2115L35.0158 31.6318C35.0158 30.9222 34.8304 30.2246 34.4781 29.6086C34.1257 28.9927 33.6187 28.4793 33.0071 28.1194C32.3953 27.7595 31.7004 27.5655 30.9909 27.557C30.2811 27.5482 29.5815 27.7248 28.9612 28.0693L14.3547 36.1862L14.3547 36.1862Z" id="Shape" fill="#FFFFFF" stroke="none" />
    <path d="M18.0369 11.1809L9.16262 16.1262C6.38534 17.6693 4.07126 19.927 2.4602 22.6654C0.849143 25.4037 -0.000268436 28.5231 0 31.7003L0 41.1854C0.00161248 41.4923 0.0833187 41.7936 0.237007 42.0594C0.390694 42.325 0.611086 42.5461 0.876338 42.7005C1.14161 42.855 1.44261 42.9375 1.74957 42.9402C2.05653 42.9427 2.35885 42.865 2.62662 42.715L14.3548 36.1863L14.3548 32.4162C14.354 31.6519 14.5573 30.901 14.9441 30.2418C15.3307 29.5823 15.8865 29.0382 16.5538 28.6656L19.586 26.9821C19.9061 26.8052 20.1727 26.5457 20.3584 26.2308C20.5441 25.9158 20.6418 25.5567 20.6416 25.1911L20.6416 12.73C20.6413 12.4245 20.5617 12.1244 20.4104 11.8589C20.2592 11.5935 20.0417 11.3718 19.7793 11.2157C19.5166 11.0595 19.218 10.9742 18.9126 10.9681C18.6072 10.962 18.3055 11.0353 18.0369 11.1809L18.0369 11.1809L18.0369 11.1809Z" id="Shape" fill="#FFFFFF" stroke="none" />
    <path d="M164.135 54.6466L164.135 47.7014L164.704 47.7014L164.704 48.6649L164.773 48.6649C164.844 48.5136 164.939 48.3585 165.061 48.1996C165.183 48.0406 165.346 47.9064 165.549 47.7967C165.753 47.6871 166.01 47.6323 166.319 47.6323C166.735 47.6323 167.1 47.7414 167.412 47.9595C167.725 48.1777 167.968 48.4824 168.142 48.8737C168.317 49.2651 168.404 49.7205 168.404 50.2401C168.404 50.7619 168.317 51.219 168.142 51.6114C167.968 52.0038 167.725 52.3096 167.412 52.5289C167.1 52.7481 166.738 52.8577 166.326 52.8577C166.021 52.8577 165.766 52.8029 165.561 52.6933C165.356 52.5837 165.19 52.4483 165.064 52.2872C164.938 52.126 164.841 51.9687 164.773 51.8153L164.721 51.8153L164.721 54.6466L164.135 54.6466ZM164.714 50.2302C164.714 50.6358 164.775 50.9964 164.897 51.3121C165.018 51.6278 165.194 51.875 165.424 52.0537C165.655 52.2323 165.932 52.3217 166.256 52.3217C166.592 52.3217 166.876 52.229 167.108 52.0438C167.341 51.8585 167.517 51.6081 167.638 51.2924C167.758 50.9767 167.818 50.6226 167.818 50.2302C167.818 49.8422 167.759 49.4925 167.639 49.1812C167.52 48.8699 167.344 48.6227 167.113 48.4396C166.882 48.2566 166.596 48.165 166.256 48.165C165.928 48.165 165.648 48.2533 165.418 48.4298C165.188 48.6062 165.013 48.8496 164.893 49.1598C164.774 49.47 164.714 49.8268 164.714 50.2302L164.714 50.2302ZM158.953 48.2536L158.953 47.7012L162.899 47.7012L162.899 48.2536L161.228 48.2536L161.228 52.7523L160.643 52.7523L160.643 48.2536L158.953 48.2536ZM154.451 47.7012L154.451 49.9538L157.121 49.9538L157.121 47.7012L157.706 47.7012L157.706 52.7523L157.121 52.7523L157.121 50.5062L154.451 50.5062L154.451 52.7523L153.865 52.7523L153.865 47.7012L154.451 47.7012ZM150.531 52.8577C150.06 52.8577 149.652 52.7476 149.308 52.5272C148.963 52.3069 148.698 52.0011 148.51 51.6097C148.323 51.2184 148.229 50.7673 148.229 50.2565C148.229 49.7457 148.323 49.293 148.51 48.8984C148.698 48.5038 148.957 48.1941 149.29 47.9694C149.622 47.7447 150.006 47.6323 150.442 47.6323C150.808 47.6323 151.154 47.7217 151.48 47.9003C151.805 48.079 152.07 48.3514 152.274 48.7175C152.478 49.0836 152.58 49.5484 152.58 50.1118L152.58 50.4012L148.818 50.4012C148.831 50.9844 148.991 51.4502 149.298 51.7988C149.605 52.1474 150.016 52.3217 150.531 52.3217C150.89 52.3217 151.184 52.24 151.412 52.0767C151.64 51.9134 151.802 51.7188 151.899 51.493L152.455 51.6739C152.341 51.9917 152.118 52.2685 151.787 52.5042C151.456 52.7399 151.037 52.8577 150.531 52.8577L150.531 52.8577ZM148.821 49.8849L151.981 49.8849C151.981 49.5604 151.916 49.2683 151.785 49.0085C151.655 48.7487 151.474 48.5432 151.243 48.3919C151.012 48.2407 150.745 48.165 150.442 48.165C150.135 48.165 149.864 48.2429 149.628 48.3985C149.393 48.5542 149.205 48.7624 149.064 49.0233C148.924 49.2842 148.843 49.5714 148.821 49.8849L148.821 49.8849ZM146.706 47.7012L146.706 52.1965L147.242 52.1965L147.242 54.3866L146.657 54.3866L146.657 52.7523L142.882 52.7523L142.882 47.7012L143.471 47.7012L143.471 52.1998L146.118 52.1998L146.118 47.7012L146.706 47.7012ZM135.358 51.9203L138.025 47.7012L138.725 47.7012L138.725 52.7523L138.14 52.7523L138.14 48.5332L135.483 52.7523L134.772 52.7523L134.772 47.7012L135.358 47.7012L135.358 51.9203ZM137.354 46.0176L137.906 46.0176C137.906 46.3311 137.803 46.5854 137.596 46.7805C137.388 46.9756 137.106 47.0732 136.749 47.0732C136.396 47.0732 136.116 46.9756 135.91 46.7805C135.704 46.5854 135.601 46.3311 135.601 46.0176L136.154 46.0176C136.154 46.1908 136.2 46.3355 136.293 46.4517C136.387 46.5679 136.538 46.6259 136.749 46.6259C136.959 46.6259 137.113 46.5678 137.209 46.4517C137.306 46.3355 137.354 46.1908 137.354 46.0176L137.354 46.0176ZM128.623 49.6512L130.001 49.6512C130.571 49.6512 131.01 49.7894 131.318 50.0656C131.626 50.3418 131.78 50.7156 131.78 51.187C131.78 51.6561 131.625 52.0343 131.316 52.3215C131.007 52.6087 130.569 52.7523 130.001 52.7523L128.038 52.7523L128.038 47.7012L128.623 47.7012L128.623 49.6512ZM128.623 50.2036L128.623 52.1997L130.001 52.1997C130.358 52.1997 130.647 52.1148 130.866 51.9449C131.085 51.775 131.195 51.5311 131.195 51.2132C131.195 50.8931 131.085 50.6448 130.866 50.4683C130.647 50.2919 130.358 50.2036 130.001 50.2036L128.623 50.2036ZM132.628 52.7523L132.628 47.7012L133.217 47.7012L133.217 52.7523L132.628 52.7523ZM123.217 47.7012L123.217 49.9538L125.887 49.9538L125.887 47.7012L126.472 47.7012L126.472 52.7523L125.887 52.7523L125.887 50.5062L123.217 50.5062L123.217 52.7523L122.631 52.7523L122.631 47.7012L123.217 47.7012ZM118.189 49.6512L119.566 49.6512C120.136 49.6512 120.576 49.7894 120.884 50.0656C121.192 50.3418 121.346 50.7156 121.346 51.187C121.346 51.6561 121.191 52.0343 120.882 52.3215C120.573 52.6087 120.134 52.7523 119.566 52.7523L117.603 52.7523L117.603 47.7012L118.189 47.7012L118.189 49.6512ZM118.189 50.2036L118.189 52.1997L119.567 52.1997C119.924 52.1997 120.212 52.1148 120.431 51.9449C120.651 51.775 120.76 51.5311 120.76 51.2132C120.76 50.8931 120.651 50.6448 120.431 50.4683C120.212 50.2919 119.924 50.2036 119.567 50.2036L118.189 50.2036ZM111.671 52.7523L111.671 52.1998L111.829 52.1998C112.07 52.1998 112.25 52.1384 112.37 52.0157C112.489 51.8929 112.574 51.6764 112.623 51.3662C112.672 51.056 112.709 50.6224 112.733 50.0656L112.842 47.7012L116.051 47.7012L116.051 52.7523L115.463 52.7523L115.463 48.2536L113.397 48.2536L113.302 50.2629C113.276 50.811 113.224 51.2697 113.147 51.6391C113.071 52.0085 112.935 52.2864 112.741 52.4728C112.547 52.6591 112.261 52.7523 111.881 52.7523L111.671 52.7523ZM108.833 52.8577C108.362 52.8577 107.954 52.7476 107.61 52.5272C107.265 52.3069 107 52.0011 106.812 51.6097C106.625 51.2184 106.531 50.7673 106.531 50.2565C106.531 49.7457 106.625 49.293 106.812 48.8984C107 48.5038 107.259 48.1941 107.592 47.9694C107.924 47.7447 108.308 47.6323 108.744 47.6323C109.11 47.6323 109.456 47.7217 109.782 47.9003C110.107 48.079 110.372 48.3514 110.576 48.7175C110.78 49.0836 110.882 49.5484 110.882 50.1118L110.882 50.4012L107.12 50.4012C107.133 50.9844 107.293 51.4502 107.6 51.7988C107.907 52.1474 108.318 52.3217 108.833 52.3217C109.192 52.3217 109.486 52.24 109.714 52.0767C109.942 51.9134 110.104 51.7188 110.201 51.493L110.757 51.6739C110.643 51.9917 110.42 52.2685 110.089 52.5042C109.758 52.7399 109.339 52.8577 108.833 52.8577L108.833 52.8577ZM107.123 49.8849L110.283 49.8849C110.283 49.5604 110.218 49.2683 110.088 49.0085C109.957 48.7487 109.776 48.5432 109.545 48.3919C109.314 48.2407 109.047 48.165 108.744 48.165C108.437 48.165 108.166 48.2429 107.93 48.3985C107.695 48.5542 107.507 48.7624 107.366 49.0233C107.226 49.2842 107.145 49.5714 107.123 49.8849L107.123 49.8849ZM101.608 48.2536L101.608 47.7012L105.554 47.7012L105.554 48.2536L103.884 48.2536L103.884 52.7523L103.299 52.7523L103.299 48.2536L101.608 48.2536ZM98.175 52.8676C97.8702 52.8676 97.5918 52.8078 97.3397 52.6884C97.0876 52.5689 96.887 52.3957 96.7379 52.1688C96.5888 51.9419 96.5143 51.6662 96.5143 51.3417C96.5143 51.0085 96.5965 50.7438 96.7609 50.5476C96.9253 50.3513 97.1539 50.2028 97.4466 50.102C97.7392 50.0011 98.0752 49.9277 98.4545 49.8816C98.8798 49.829 99.2065 49.7813 99.4344 49.7386C99.6625 49.6958 99.7765 49.5791 99.7765 49.3884L99.7765 49.27C99.7765 48.9236 99.674 48.6518 99.469 48.4544C99.264 48.2571 98.9697 48.1585 98.586 48.1585C98.2221 48.1585 97.9256 48.2385 97.6965 48.3985C97.4674 48.5586 97.3068 48.7471 97.2147 48.9642L96.659 48.7636C96.773 48.4873 96.9308 48.2665 97.1325 48.1009C97.3342 47.9354 97.56 47.8159 97.8099 47.7425C98.0599 47.669 98.3131 47.6323 98.5696 47.6323C98.7625 47.6323 98.9631 47.6575 99.1714 47.708C99.3796 47.7584 99.5742 47.8455 99.7551 47.9694C99.9359 48.0933 100.082 48.2648 100.194 48.484C100.306 48.7033 100.362 48.9828 100.362 49.3226L100.362 52.7525L99.7765 52.7525L99.7765 51.9534L99.7403 51.9534C99.6351 52.177 99.4531 52.3853 99.1944 52.5782C98.9357 52.7711 98.5959 52.8676 98.175 52.8676L98.175 52.8676ZM98.2539 52.3315C98.5652 52.3315 98.8348 52.263 99.0628 52.1259C99.2908 51.9889 99.4668 51.8053 99.5906 51.5751C99.7145 51.3449 99.7764 51.0917 99.7764 50.8155L99.7764 50.0854C99.7194 50.1403 99.612 50.1879 99.4542 50.2285C99.2963 50.2691 99.1248 50.3025 98.9395 50.3288C98.7543 50.3551 98.5926 50.377 98.4545 50.3946C98.027 50.4472 97.6943 50.5458 97.4564 50.6905C97.2185 50.8352 97.0996 51.061 97.0996 51.368C97.0996 51.6727 97.2092 51.9095 97.4285 52.0783C97.6477 52.2471 97.9228 52.3315 98.2539 52.3315L98.2539 52.3315ZM91.6045 52.7523L91.6045 47.7012L93.594 47.7012C94.1311 47.7012 94.5548 47.8179 94.865 48.0514C95.1752 48.2849 95.3303 48.5978 95.3303 48.9903C95.3303 49.2906 95.2432 49.5307 95.0689 49.7104C94.8946 49.8902 94.6628 50.0174 94.3734 50.0919C94.665 50.1423 94.9231 50.2771 95.1478 50.4964C95.3725 50.7156 95.4849 51.0116 95.4849 51.3843C95.4849 51.7789 95.3408 52.1055 95.0525 52.3642C94.7642 52.6229 94.3745 52.7523 93.8834 52.7523L91.6045 52.7523ZM92.1637 52.21L93.8836 52.21C94.1905 52.21 94.4344 52.1306 94.6153 51.9716C94.7961 51.8127 94.8866 51.6006 94.8866 51.3353C94.8866 51.0525 94.8016 50.8261 94.6317 50.6562C94.4618 50.4863 94.2343 50.4014 93.9493 50.4014L92.1637 50.4014L92.1637 52.21ZM92.1637 49.8813L93.6304 49.8813C93.9702 49.8813 94.2409 49.804 94.4426 49.6495C94.6443 49.4949 94.7441 49.2872 94.7419 49.0263C94.7419 48.7786 94.641 48.5862 94.4393 48.4492C94.2376 48.3122 93.9559 48.2437 93.5942 48.2437L92.1637 48.2437L92.1637 49.8813ZM88.0958 52.8577C87.6595 52.8577 87.2742 52.747 86.9399 52.5256C86.6056 52.3042 86.3442 51.9978 86.1556 51.6064C85.9671 51.2151 85.8728 50.763 85.8728 50.25C85.8728 49.7326 85.9671 49.2777 86.1556 48.8852C86.3442 48.4928 86.6056 48.1859 86.9399 47.9645C87.2742 47.743 87.6595 47.6323 88.0958 47.6323C88.5321 47.6323 88.9174 47.743 89.2517 47.9645C89.586 48.1859 89.8475 48.4928 90.036 48.8852C90.2246 49.2777 90.3188 49.7326 90.3188 50.25C90.3188 50.763 90.2246 51.2151 90.036 51.6064C89.8475 51.9978 89.586 52.3042 89.2517 52.5256C88.9174 52.747 88.5321 52.8577 88.0958 52.8577L88.0958 52.8577ZM88.0958 52.3217C88.4466 52.3217 88.7431 52.2274 88.9853 52.0389C89.2276 51.8503 89.4123 51.5993 89.5394 51.2858C89.6666 50.9723 89.7302 50.627 89.7302 50.2499C89.7302 49.8729 89.6666 49.5265 89.5394 49.2108C89.4123 48.8951 89.2276 48.6419 88.9853 48.4511C88.7431 48.2604 88.4466 48.165 88.0958 48.165C87.7472 48.165 87.4513 48.2604 87.2079 48.4511C86.9646 48.6419 86.7793 48.8951 86.6522 49.2108C86.525 49.5265 86.4614 49.8729 86.4614 50.2499C86.4614 50.627 86.525 50.9723 86.6522 51.2858C86.7793 51.5993 86.9646 51.8503 87.2079 52.0389C87.4513 52.2274 87.7472 52.3217 88.0958 52.3217L88.0958 52.3217ZM81.259 51.463L81.8806 51.463C81.8981 51.7327 82.0143 51.9432 82.2291 52.0944C82.444 52.2457 82.7268 52.3213 83.0776 52.3213C83.4393 52.3213 83.7391 52.2397 83.977 52.0763C84.2148 51.913 84.3338 51.6746 84.3338 51.3611C84.3338 51.0783 84.2378 50.8503 84.046 50.6771C83.8542 50.5039 83.6125 50.4151 83.3209 50.4107L82.4396 50.4107L82.4396 49.8747L83.311 49.8747C83.6114 49.8572 83.8394 49.7755 83.995 49.6297C84.1507 49.4839 84.2285 49.2926 84.2285 49.0559C84.2285 48.7862 84.1332 48.5697 83.9424 48.4064C83.7517 48.2431 83.493 48.1614 83.1664 48.1614C82.8353 48.1614 82.5602 48.2425 82.3409 48.4048C82.1217 48.567 82.0055 48.7753 81.9924 49.0296L81.3774 49.0296C81.3884 48.7555 81.4706 48.5138 81.6241 48.3045C81.7775 48.0951 81.9852 47.9312 82.2472 47.8128C82.5092 47.6944 82.8068 47.6353 83.14 47.6353C83.482 47.6353 83.7791 47.6966 84.0312 47.8194C84.2833 47.9422 84.4785 48.1093 84.6166 48.3209C84.7547 48.5325 84.8237 48.772 84.8237 49.0394C84.8237 49.3179 84.747 49.5464 84.5936 49.7251C84.4401 49.9038 84.2461 50.0293 84.0115 50.1016L84.0115 50.1509C84.279 50.1794 84.4987 50.3082 84.6708 50.5373C84.8429 50.7664 84.929 51.041 84.929 51.3611C84.929 51.6593 84.8512 51.9207 84.6955 52.1454C84.5398 52.3701 84.3239 52.545 84.0477 52.6699C83.7714 52.7949 83.4514 52.8574 83.0874 52.8574C82.7388 52.8574 82.4286 52.7987 82.1568 52.6814C81.8849 52.5641 81.6701 52.4008 81.5122 52.1914C81.3544 51.9821 81.27 51.7393 81.259 51.463L81.259 51.463ZM77.8423 52.8676C77.5376 52.8676 77.2592 52.8078 77.007 52.6884C76.7549 52.5689 76.5543 52.3957 76.4053 52.1688C76.2562 51.9419 76.1816 51.6662 76.1816 51.3417C76.1816 51.0085 76.2639 50.7438 76.4283 50.5476C76.5927 50.3513 76.8212 50.2028 77.1139 50.102C77.4066 50.0011 77.7426 49.9277 78.1218 49.8816C78.5471 49.829 78.8738 49.7813 79.1018 49.7386C79.3298 49.6958 79.4438 49.5791 79.4438 49.3884L79.4438 49.27C79.4438 48.9236 79.3413 48.6518 79.1363 48.4544C78.9314 48.2571 78.637 48.1585 78.2534 48.1585C77.8895 48.1585 77.5929 48.2385 77.3638 48.3985C77.1348 48.5586 76.9742 48.7471 76.8821 48.9642L76.3263 48.7636C76.4403 48.4873 76.5982 48.2665 76.7999 48.1009C77.0016 47.9354 77.2274 47.8159 77.4773 47.7425C77.7272 47.669 77.9804 47.6323 78.2369 47.6323C78.4299 47.6323 78.6305 47.6575 78.8387 47.708C79.047 47.7584 79.2416 47.8455 79.4224 47.9694C79.6033 48.0933 79.7496 48.2648 79.8615 48.484C79.9733 48.7033 80.0292 48.9828 80.0292 49.3226L80.0292 52.7525L79.4438 52.7525L79.4438 51.9534L79.4076 51.9534C79.3024 52.177 79.1204 52.3853 78.8618 52.5782C78.6031 52.7711 78.2632 52.8676 77.8423 52.8676L77.8423 52.8676ZM77.9212 52.3315C78.2325 52.3315 78.5022 52.263 78.7302 52.1259C78.9582 51.9889 79.1341 51.8053 79.258 51.5751C79.3819 51.3449 79.4438 51.0917 79.4438 50.8155L79.4438 50.0854C79.3868 50.1403 79.2794 50.1879 79.1215 50.2285C78.9637 50.2691 78.7921 50.3025 78.6069 50.3288C78.4216 50.3551 78.2599 50.377 78.1218 50.3946C77.6943 50.4472 77.3616 50.5458 77.1238 50.6905C76.8859 50.8352 76.767 51.061 76.767 51.368C76.767 51.6727 76.8766 51.9095 77.0958 52.0783C77.315 52.2471 77.5902 52.3315 77.9212 52.3315L77.9212 52.3315ZM70.8773 54.6466L70.8773 47.7014L71.4462 47.7014L71.4462 48.6649L71.5153 48.6649C71.5854 48.5136 71.6814 48.3585 71.803 48.1996C71.9247 48.0406 72.0875 47.9064 72.2914 47.7967C72.4953 47.6871 72.7518 47.6323 73.0609 47.6323C73.4774 47.6323 73.8419 47.7414 74.1543 47.9595C74.4667 48.1777 74.71 48.4824 74.8843 48.8737C75.0586 49.2651 75.1458 49.7205 75.1458 50.2401C75.1458 50.7619 75.0586 51.219 74.8843 51.6114C74.71 52.0038 74.4667 52.3096 74.1543 52.5289C73.8419 52.7481 73.4796 52.8577 73.0674 52.8577C72.7627 52.8577 72.5079 52.8029 72.3029 52.6933C72.0979 52.5837 71.9324 52.4483 71.8063 52.2872C71.6803 52.126 71.5832 51.9687 71.5153 51.8153L71.4627 51.8153L71.4627 54.6466L70.8773 54.6466ZM71.4562 50.2302C71.4562 50.6358 71.517 50.9964 71.6387 51.3121C71.7604 51.6278 71.9363 51.875 72.1665 52.0537C72.3967 52.2323 72.674 52.3217 72.9985 52.3217C73.3339 52.3217 73.6178 52.229 73.8502 52.0438C74.0826 51.8585 74.2591 51.6081 74.3796 51.2924C74.5002 50.9767 74.5605 50.6226 74.5605 50.2302C74.5605 49.8422 74.5008 49.4925 74.3813 49.1812C74.2618 48.8699 74.0864 48.6227 73.8551 48.4396C73.6238 48.2566 73.3383 48.165 72.9985 48.165C72.6696 48.165 72.3901 48.2533 72.1599 48.4298C71.9297 48.6062 71.7549 48.8496 71.6354 49.1598C71.5159 49.47 71.4562 49.8268 71.4562 50.2302L71.4562 50.2302ZM69.1115 45.8071L69.4173 46.1787C69.2419 46.3475 69.0259 46.4495 68.7694 46.4846C68.5129 46.5196 68.2247 46.5427 67.9046 46.5536C67.8432 46.5558 67.7802 46.558 67.7155 46.5602C67.6508 46.5624 67.5856 46.5646 67.5198 46.5668C66.9323 46.5953 66.5004 46.8085 66.2242 47.2064C65.9479 47.6043 65.7857 48.1737 65.7375 48.9147L65.8032 48.9147C65.972 48.5705 66.2105 48.3086 66.5185 48.1288C66.8265 47.949 67.1658 47.8591 67.5363 47.8591C67.9243 47.8591 68.2734 47.954 68.5836 48.1436C68.8939 48.3332 69.1394 48.6106 69.3203 48.9756C69.5011 49.3406 69.5916 49.7851 69.5916 50.3091C69.5916 50.8264 69.5006 51.2764 69.3186 51.659C69.1367 52.0415 68.8823 52.3369 68.5557 52.5452C68.229 52.7535 67.8465 52.8576 67.408 52.8576C66.7459 52.8576 66.2148 52.6263 65.8147 52.1638C65.4146 51.7012 65.2146 51.0248 65.2146 50.1348L65.2146 49.6053C65.2146 48.428 65.4009 47.5423 65.7736 46.9482C66.1463 46.3541 66.7196 46.0439 67.4935 46.0176C67.5878 46.0132 67.6788 46.011 67.7665 46.011C67.8541 46.011 67.9375 46.011 68.0164 46.011C68.2575 46.011 68.4696 46.0028 68.6527 45.9864C68.8358 45.9699 68.9887 45.9102 69.1115 45.8071L69.1115 45.8071ZM67.408 52.3215C67.8991 52.3215 68.2882 52.1384 68.5754 51.7723C68.8626 51.4062 69.0062 50.9184 69.0062 50.3089C69.0062 49.706 68.8615 49.2363 68.5721 48.8998C68.2827 48.5633 67.8991 48.395 67.4212 48.395C67.0879 48.395 66.8013 48.4789 66.5612 48.6466C66.3212 48.8143 66.1359 49.045 66.0055 49.3388C65.875 49.6326 65.8076 49.9669 65.8032 50.3418C65.8032 50.9535 65.9463 51.4363 66.2324 51.7904C66.5185 52.1444 66.9103 52.3215 67.408 52.3215L67.408 52.3215ZM61.9656 52.8577C61.5293 52.8577 61.144 52.747 60.8097 52.5256C60.4753 52.3042 60.2139 51.9978 60.0254 51.6064C59.8368 51.2151 59.7426 50.763 59.7426 50.25C59.7426 49.7326 59.8368 49.2777 60.0254 48.8852C60.2139 48.4928 60.4753 48.1859 60.8097 47.9645C61.144 47.743 61.5293 47.6323 61.9656 47.6323C62.4018 47.6323 62.7871 47.743 63.1215 47.9645C63.4558 48.1859 63.7172 48.4928 63.9058 48.8852C64.0943 49.2777 64.1886 49.7326 64.1886 50.25C64.1886 50.763 64.0943 51.2151 63.9058 51.6064C63.7172 51.9978 63.4558 52.3042 63.1215 52.5256C62.7871 52.747 62.4018 52.8577 61.9656 52.8577L61.9656 52.8577ZM61.9657 52.3217C62.3164 52.3217 62.613 52.2274 62.8552 52.0389C63.0975 51.8503 63.2822 51.5993 63.4093 51.2858C63.5365 50.9723 63.6 50.627 63.6 50.2499C63.6 49.8729 63.5365 49.5265 63.4093 49.2108C63.2822 48.8951 63.0975 48.6419 62.8552 48.4511C62.613 48.2604 62.3164 48.165 61.9657 48.165C61.6171 48.165 61.3211 48.2604 61.0778 48.4511C60.8344 48.6419 60.6492 48.8951 60.522 49.2108C60.3949 49.5265 60.3313 49.8729 60.3313 50.2499C60.3313 50.627 60.3949 50.9723 60.522 51.2858C60.6492 51.5993 60.8344 51.8503 61.0778 52.0389C61.3211 52.2274 61.6171 52.3217 61.9657 52.3217L61.9657 52.3217Z" id="образовательный-центр" fill="#6AB6E5" fill-rule="evenodd" stroke="none" />
    <path d="M156.479 13.2886L164.549 13.2886L170.099 26.8159L170.379 26.8159L175.93 13.2886L184 13.2886L184 37.1714L177.656 37.1714L177.656 23.3641L177.47 23.3641L172.152 36.9848L168.327 36.9848L163.009 23.2708L162.823 23.2708L162.823 37.1714L156.479 37.1714L156.479 13.2886ZM153.493 25.2298C153.493 27.8887 152.976 30.1296 151.942 31.9527C150.908 33.7758 149.513 35.1557 147.756 36.0925C145.999 37.0293 144.04 37.4977 141.879 37.4977C139.702 37.4977 137.737 37.0255 135.984 36.0809C134.231 35.1363 132.839 33.7525 131.809 31.9294C130.779 30.1063 130.264 27.8731 130.264 25.2298C130.264 22.571 130.779 20.33 131.809 18.507C132.839 16.6839 134.231 15.3039 135.984 14.3671C137.737 13.4303 139.702 12.9619 141.879 12.9619C144.04 12.9619 145.999 13.4303 147.756 14.3671C149.513 15.3039 150.908 16.6839 151.942 18.507C152.976 20.33 153.493 22.571 153.493 25.2298L153.493 25.2298ZM146.823 25.2297C146.823 23.084 146.401 21.4436 145.558 20.3085C144.714 19.1735 143.488 18.606 141.879 18.606C140.269 18.606 139.043 19.1735 138.199 20.3085C137.356 21.4436 136.934 23.084 136.934 25.2297C136.934 27.3754 137.356 29.0158 138.199 30.1509C139.043 31.2859 140.269 31.8534 141.879 31.8534C143.488 31.8534 144.714 31.2859 145.558 30.1509C146.401 29.0158 146.823 27.3754 146.823 25.2297L146.823 25.2297ZM105.728 37.1714L105.728 13.2886L112.212 13.2886L112.212 22.6178L120.794 22.6178L120.794 13.2886L127.278 13.2886L127.278 37.1714L120.794 37.1714L120.794 27.8421L112.212 27.8421L112.212 37.1714L105.728 37.1714ZM81.9849 13.2886L88.4687 13.2886L88.4687 25.7897L88.6553 25.7897L97.1448 13.2886L102.649 13.2886L102.649 37.1714L96.1653 37.1714L96.1653 24.6236L96.0253 24.6236L87.3958 37.1714L81.9849 37.1714L81.9849 13.2886ZM60.761 37.1714L60.761 13.2886L77.5536 13.2886L77.5536 18.5129L67.2448 18.5129L67.2448 21.3117L69.6704 21.3117C71.6762 21.3117 73.4312 21.6343 74.9356 22.2796C76.4399 22.9249 77.6099 23.8345 78.4457 25.0084C79.2814 26.1823 79.6993 27.5623 79.6993 29.1482C79.6993 30.7342 79.2814 32.1297 78.4457 33.3347C77.6099 34.5397 76.4399 35.4804 74.9356 36.1568C73.4312 36.8332 71.6762 37.1714 69.6704 37.1714L60.761 37.1714ZM67.2448 32.0866L69.6703 32.0866C70.8365 32.0866 71.7267 31.8048 72.3408 31.2412C72.955 30.6775 73.2621 29.9642 73.2621 29.1013C73.2621 28.285 72.955 27.6067 72.3408 27.0663C71.7267 26.526 70.8365 26.2559 69.6703 26.2559L67.2448 26.2559L67.2448 32.0866Z" id="БИНОМ" fill="#FFFFFF" fill-rule="evenodd" stroke="none" />
  </g>
</svg>