<?xml version="1.0" encoding="utf-8"?>
<svg width="184px" height="57.916138px" viewBox="0 0 184 57.916138" version="1.1" xmlns:xlink="http://www.w3.org/1999/xlink" xmlns="http://www.w3.org/2000/svg">
  <g id="Group">
    <path d="M20.6587 21.729L20.6587 1.76426C20.6587 1.45696 20.5785 1.15498 20.4258 0.88824C20.2733 0.621497 20.0537 0.399225 19.7888 0.24346C19.524 0.087671 19.2229 0.0038145 18.9156 0.000125363C18.6084 -0.00354 18.3055 0.0731083 18.0369 0.222496L10.6213 4.34445C7.40183 6.13385 4.71936 8.75155 2.85185 11.9264C0.984334 15.1012 -0.000268436 18.7176 0 22.4009L0 33.2128L20.6587 21.729L20.6587 21.729Z" id="Shape" fill="#44C3D2" stroke="none" />
    <path d="M14.3548 25.2279L27.9253 17.6901C28.6522 17.2859 29.4721 17.0786 30.3039 17.0886C31.1358 17.0986 31.9505 17.3256 32.6676 17.7472C33.3845 18.1688 33.9792 18.7703 34.3923 19.4923C34.8055 20.2143 35.023 21.0317 35.0232 21.8634L35.0232 36.7093L14.3621 48.1931L14.3548 25.2279L14.3548 25.2279Z" id="Shape" fill="#44C3D2" stroke="none" />
    <path d="M14.3548 36.1864L14.3548 56.1536C14.3555 56.4607 14.4362 56.7622 14.5889 57.0285C14.7416 57.2949 14.9612 57.5167 15.2259 57.6724C15.4905 57.828 15.7913 57.9121 16.0981 57.916C16.405 57.9201 16.708 57.8439 16.9765 57.6953L30.2367 50.3335C31.6856 49.5294 32.8929 48.3521 33.7331 46.924C34.5737 45.4958 35.0164 43.8688 35.0159 42.2117L35.0159 31.6319C35.0159 30.9224 34.8304 30.2248 34.4781 29.6088C34.1258 28.9929 33.6188 28.4795 33.0072 28.1196C32.3954 27.7597 31.7005 27.5657 30.9909 27.5571C30.2811 27.5483 29.5816 27.725 28.9612 28.0695L14.3548 36.1864L14.3548 36.1864Z" id="Shape" fill="#434099" stroke="none" />
    <path d="M18.0369 11.181L9.16262 16.1264C6.38534 17.6694 4.07126 19.9271 2.4602 22.6655C0.849143 25.4038 -0.000268436 28.5233 0 31.7004L0 41.1855C0.00161248 41.4924 0.0833187 41.7937 0.237007 42.0595C0.390694 42.3251 0.611086 42.5462 0.876338 42.7007C1.14161 42.8551 1.44261 42.9377 1.74957 42.9404C2.05653 42.9428 2.35885 42.8651 2.62662 42.7151L14.3548 36.1864L14.3548 32.4163C14.354 31.652 14.5573 30.9012 14.9441 30.2419C15.3307 29.5825 15.8865 29.0383 16.5538 28.6657L19.586 26.9822C19.9061 26.8053 20.1727 26.5459 20.3584 26.2309C20.5441 25.916 20.6418 25.5568 20.6416 25.1913L20.6416 12.7301C20.6413 12.4246 20.5617 12.1245 20.4104 11.859C20.2592 11.5936 20.0417 11.3719 19.7793 11.2158C19.5166 11.0596 19.218 10.9743 18.9126 10.9682C18.6072 10.9621 18.3055 11.0354 18.0369 11.181L18.0369 11.181L18.0369 11.181Z" id="Shape" fill="#434099" stroke="none" />
    <path d="M164.135 54.6464L164.135 47.7012L164.704 47.7012L164.704 48.6647L164.773 48.6647C164.844 48.5134 164.939 48.3583 165.061 48.1994C165.183 48.0404 165.346 47.9062 165.549 47.7965C165.753 47.6869 166.01 47.6321 166.319 47.6321C166.735 47.6321 167.1 47.7412 167.412 47.9593C167.725 48.1774 167.968 48.4822 168.142 48.8735C168.317 49.2648 168.404 49.7203 168.404 50.2399C168.404 50.7616 168.317 51.2187 168.142 51.6112C167.968 52.0036 167.725 52.3094 167.412 52.5287C167.1 52.7479 166.738 52.8575 166.326 52.8575C166.021 52.8575 165.766 52.8027 165.561 52.6931C165.356 52.5835 165.19 52.4481 165.064 52.2869C164.938 52.1258 164.841 51.9685 164.773 51.8151L164.721 51.8151L164.721 54.6464L164.135 54.6464ZM164.714 50.23C164.714 50.6356 164.775 50.9962 164.897 51.3119C165.018 51.6276 165.194 51.8748 165.424 52.0535C165.655 52.2321 165.932 52.3215 166.256 52.3215C166.592 52.3215 166.876 52.2288 167.108 52.0436C167.341 51.8583 167.517 51.6079 167.638 51.2922C167.758 50.9765 167.818 50.6224 167.818 50.23C167.818 49.8419 167.759 49.4923 167.639 49.181C167.52 48.8697 167.344 48.6225 167.113 48.4394C166.882 48.2564 166.596 48.1648 166.256 48.1648C165.928 48.1648 165.648 48.2531 165.418 48.4295C165.188 48.606 165.013 48.8494 164.893 49.1596C164.774 49.4698 164.714 49.8266 164.714 50.23L164.714 50.23ZM158.953 48.2536L158.953 47.7011L162.899 47.7011L162.899 48.2536L161.228 48.2536L161.228 52.7522L160.643 52.7522L160.643 48.2536L158.953 48.2536ZM154.451 47.7011L154.451 49.9537L157.121 49.9537L157.121 47.7011L157.706 47.7011L157.706 52.7522L157.121 52.7522L157.121 50.5062L154.451 50.5062L154.451 52.7522L153.865 52.7522L153.865 47.7011L154.451 47.7011ZM150.531 52.8575C150.06 52.8575 149.652 52.7473 149.308 52.527C148.963 52.3067 148.698 52.0009 148.51 51.6095C148.323 51.2182 148.229 50.7671 148.229 50.2563C148.229 49.7455 148.323 49.2928 148.51 48.8982C148.698 48.5036 148.957 48.1939 149.29 47.9692C149.622 47.7445 150.006 47.6321 150.442 47.6321C150.808 47.6321 151.154 47.7214 151.48 47.9001C151.805 48.0788 152.07 48.3512 152.274 48.7173C152.478 49.0834 152.58 49.5482 152.58 50.1116L152.58 50.401L148.818 50.401C148.831 50.9842 148.991 51.45 149.298 51.7986C149.605 52.1472 150.016 52.3215 150.531 52.3215C150.89 52.3215 151.184 52.2398 151.412 52.0765C151.64 51.9132 151.802 51.7186 151.899 51.4928L152.455 51.6736C152.341 51.9915 152.118 52.2683 151.787 52.504C151.456 52.7397 151.037 52.8575 150.531 52.8575L150.531 52.8575ZM148.821 49.8847L151.981 49.8847C151.981 49.5602 151.916 49.2681 151.785 49.0083C151.655 48.7485 151.474 48.543 151.243 48.3917C151.012 48.2405 150.745 48.1648 150.442 48.1648C150.135 48.1648 149.864 48.2427 149.628 48.3983C149.393 48.554 149.205 48.7622 149.064 49.0231C148.924 49.284 148.843 49.5712 148.821 49.8847L148.821 49.8847ZM146.706 47.7011L146.706 52.1965L147.242 52.1965L147.242 54.3866L146.657 54.3866L146.657 52.7522L142.882 52.7522L142.882 47.7011L143.471 47.7011L143.471 52.1997L146.118 52.1997L146.118 47.7011L146.706 47.7011ZM135.358 51.9202L138.025 47.7011L138.725 47.7011L138.725 52.7522L138.14 52.7522L138.14 48.5331L135.483 52.7522L134.772 52.7522L134.772 47.7011L135.358 47.7011L135.358 51.9202ZM137.354 46.0174L137.906 46.0174C137.906 46.3309 137.803 46.5852 137.596 46.7804C137.388 46.9755 137.106 47.073 136.749 47.073C136.396 47.073 136.116 46.9755 135.91 46.7804C135.704 46.5852 135.601 46.3309 135.601 46.0174L136.154 46.0174C136.154 46.1906 136.2 46.3353 136.293 46.4515C136.387 46.5677 136.538 46.6258 136.749 46.6258C136.959 46.6258 137.113 46.5677 137.209 46.4515C137.306 46.3353 137.354 46.1906 137.354 46.0174L137.354 46.0174ZM128.623 49.6512L130.001 49.6512C130.571 49.6512 131.01 49.7893 131.318 50.0655C131.626 50.3418 131.78 50.7155 131.78 51.1869C131.78 51.6561 131.625 52.0342 131.316 52.3214C131.007 52.6086 130.569 52.7522 130.001 52.7522L128.038 52.7522L128.038 47.7011L128.623 47.7011L128.623 49.6512ZM128.623 50.2036L128.623 52.1997L130.001 52.1997C130.358 52.1997 130.647 52.1148 130.866 51.9449C131.085 51.775 131.195 51.5311 131.195 51.2132C131.195 50.8931 131.085 50.6448 130.866 50.4684C130.647 50.2919 130.358 50.2036 130.001 50.2036L128.623 50.2036ZM132.628 52.7522L132.628 47.7011L133.217 47.7011L133.217 52.7522L132.628 52.7522ZM123.217 47.7011L123.217 49.9537L125.887 49.9537L125.887 47.7011L126.472 47.7011L126.472 52.7522L125.887 52.7522L125.887 50.5062L123.217 50.5062L123.217 52.7522L122.631 52.7522L122.631 47.7011L123.217 47.7011ZM118.189 49.6512L119.566 49.6512C120.136 49.6512 120.576 49.7893 120.884 50.0655C121.192 50.3418 121.346 50.7155 121.346 51.1869C121.346 51.6561 121.191 52.0342 120.882 52.3214C120.573 52.6086 120.134 52.7522 119.566 52.7522L117.603 52.7522L117.603 47.7011L118.189 47.7011L118.189 49.6512ZM118.189 50.2036L118.189 52.1997L119.567 52.1997C119.924 52.1997 120.212 52.1148 120.431 51.9449C120.651 51.775 120.76 51.5311 120.76 51.2132C120.76 50.8931 120.651 50.6448 120.431 50.4684C120.212 50.2919 119.924 50.2036 119.567 50.2036L118.189 50.2036ZM111.671 52.7522L111.671 52.1997L111.829 52.1997C112.07 52.1997 112.25 52.1384 112.37 52.0156C112.489 51.8928 112.574 51.6763 112.623 51.3661C112.672 51.0559 112.709 50.6224 112.733 50.0655L112.842 47.7011L116.051 47.7011L116.051 52.7522L115.463 52.7522L115.463 48.2536L113.397 48.2536L113.302 50.2628C113.276 50.8109 113.224 51.2697 113.147 51.6391C113.071 52.0085 112.935 52.2863 112.741 52.4727C112.547 52.659 112.261 52.7522 111.881 52.7522L111.671 52.7522ZM108.833 52.8575C108.362 52.8575 107.954 52.7473 107.61 52.527C107.265 52.3067 107 52.0009 106.812 51.6095C106.625 51.2182 106.531 50.7671 106.531 50.2563C106.531 49.7455 106.625 49.2928 106.812 48.8982C107 48.5036 107.259 48.1939 107.592 47.9692C107.924 47.7445 108.308 47.6321 108.744 47.6321C109.11 47.6321 109.456 47.7214 109.782 47.9001C110.107 48.0788 110.372 48.3512 110.576 48.7173C110.78 49.0834 110.882 49.5482 110.882 50.1116L110.882 50.401L107.12 50.401C107.133 50.9842 107.293 51.45 107.6 51.7986C107.907 52.1472 108.318 52.3215 108.833 52.3215C109.192 52.3215 109.486 52.2398 109.714 52.0765C109.942 51.9132 110.104 51.7186 110.201 51.4928L110.757 51.6736C110.643 51.9915 110.42 52.2683 110.089 52.504C109.758 52.7397 109.339 52.8575 108.833 52.8575L108.833 52.8575ZM107.123 49.8847L110.283 49.8847C110.283 49.5602 110.218 49.2681 110.088 49.0083C109.957 48.7485 109.776 48.543 109.545 48.3917C109.314 48.2405 109.047 48.1648 108.744 48.1648C108.437 48.1648 108.166 48.2427 107.93 48.3983C107.695 48.554 107.507 48.7622 107.366 49.0231C107.226 49.284 107.145 49.5712 107.123 49.8847L107.123 49.8847ZM101.608 48.2536L101.608 47.7011L105.554 47.7011L105.554 48.2536L103.884 48.2536L103.884 52.7522L103.299 52.7522L103.299 48.2536L101.608 48.2536ZM98.175 52.8674C97.8702 52.8674 97.5918 52.8076 97.3397 52.6881C97.0876 52.5687 96.887 52.3955 96.7379 52.1686C96.5888 51.9417 96.5143 51.666 96.5143 51.3415C96.5143 51.0083 96.5965 50.7436 96.7609 50.5473C96.9253 50.3511 97.1539 50.2026 97.4466 50.1018C97.7392 50.0009 98.0752 49.9275 98.4545 49.8814C98.8798 49.8288 99.2065 49.7811 99.4344 49.7384C99.6625 49.6956 99.7765 49.5789 99.7765 49.3882L99.7765 49.2698C99.7765 48.9234 99.674 48.6515 99.469 48.4542C99.264 48.2569 98.9697 48.1583 98.586 48.1583C98.2221 48.1583 97.9256 48.2383 97.6965 48.3983C97.4674 48.5584 97.3068 48.7469 97.2147 48.9639L96.659 48.7633C96.773 48.4871 96.9308 48.2662 97.1325 48.1007C97.3342 47.9352 97.56 47.8157 97.8099 47.7423C98.0599 47.6688 98.3131 47.6321 98.5696 47.6321C98.7625 47.6321 98.9631 47.6573 99.1714 47.7077C99.3796 47.7582 99.5742 47.8453 99.7551 47.9692C99.9359 48.093 100.082 48.2646 100.194 48.4838C100.306 48.7031 100.362 48.9826 100.362 49.3224L100.362 52.7523L99.7765 52.7523L99.7765 51.9532L99.7403 51.9532C99.6351 52.1768 99.4531 52.3851 99.1944 52.578C98.9357 52.7709 98.5959 52.8674 98.175 52.8674L98.175 52.8674ZM98.2539 52.3313C98.5652 52.3313 98.8348 52.2628 99.0628 52.1258C99.2908 51.9888 99.4668 51.8052 99.5906 51.575C99.7145 51.3448 99.7764 51.0916 99.7764 50.8153L99.7764 50.0853C99.7194 50.1401 99.612 50.1878 99.4542 50.2283C99.2963 50.2689 99.1248 50.3023 98.9395 50.3286C98.7543 50.3549 98.5926 50.3769 98.4545 50.3944C98.027 50.447 97.6943 50.5457 97.4564 50.6904C97.2185 50.8351 97.0996 51.0609 97.0996 51.3678C97.0996 51.6725 97.2092 51.9093 97.4285 52.0781C97.6477 52.2469 97.9228 52.3313 98.2539 52.3313L98.2539 52.3313ZM91.6045 52.7522L91.6045 47.7011L93.594 47.7011C94.1311 47.7011 94.5548 47.8179 94.865 48.0513C95.1752 48.2848 95.3303 48.5978 95.3303 48.9902C95.3303 49.2905 95.2432 49.5306 95.0689 49.7104C94.8946 49.8901 94.6628 50.0173 94.3734 50.0918C94.665 50.1423 94.9231 50.2771 95.1478 50.4963C95.3725 50.7155 95.4849 51.0115 95.4849 51.3842C95.4849 51.7788 95.3408 52.1055 95.0525 52.3642C94.7642 52.6229 94.3745 52.7522 93.8834 52.7522L91.6045 52.7522ZM92.1637 52.2097L93.8836 52.2097C94.1905 52.2097 94.4344 52.1302 94.6153 51.9712C94.7961 51.8123 94.8866 51.6002 94.8866 51.3349C94.8866 51.0521 94.8016 50.8258 94.6317 50.6559C94.4618 50.486 94.2343 50.401 93.9493 50.401L92.1637 50.401L92.1637 52.2097ZM92.1637 49.8814L93.6304 49.8814C93.9702 49.8814 94.2409 49.8041 94.4426 49.6495C94.6443 49.495 94.7441 49.2873 94.7419 49.0264C94.7419 48.7786 94.641 48.5863 94.4393 48.4492C94.2376 48.3122 93.9559 48.2437 93.5942 48.2437L92.1637 48.2437L92.1637 49.8814ZM88.0958 52.8575C87.6595 52.8575 87.2742 52.7468 86.9399 52.5254C86.6056 52.3039 86.3442 51.9976 86.1556 51.6062C85.9671 51.2149 85.8728 50.7627 85.8728 50.2497C85.8728 49.7324 85.9671 49.2774 86.1556 48.885C86.3442 48.4926 86.6056 48.1857 86.9399 47.9642C87.2742 47.7428 87.6595 47.6321 88.0958 47.6321C88.5321 47.6321 88.9174 47.7428 89.2517 47.9642C89.586 48.1857 89.8475 48.4926 90.036 48.885C90.2246 49.2774 90.3188 49.7324 90.3188 50.2497C90.3188 50.7627 90.2246 51.2149 90.036 51.6062C89.8475 51.9976 89.586 52.3039 89.2517 52.5254C88.9174 52.7468 88.5321 52.8575 88.0958 52.8575L88.0958 52.8575ZM88.0958 52.3215C88.4466 52.3215 88.7431 52.2272 88.9853 52.0387C89.2276 51.8501 89.4123 51.5991 89.5394 51.2856C89.6666 50.9721 89.7302 50.6268 89.7302 50.2497C89.7302 49.8726 89.6666 49.5263 89.5394 49.2106C89.4123 48.8949 89.2276 48.6417 88.9853 48.4509C88.7431 48.2602 88.4466 48.1648 88.0958 48.1648C87.7472 48.1648 87.4513 48.2602 87.2079 48.4509C86.9646 48.6417 86.7793 48.8949 86.6522 49.2106C86.525 49.5263 86.4614 49.8726 86.4614 50.2497C86.4614 50.6268 86.525 50.9721 86.6522 51.2856C86.7793 51.5991 86.9646 51.8501 87.2079 52.0387C87.4513 52.2272 87.7472 52.3215 88.0958 52.3215L88.0958 52.3215ZM81.259 51.4631L81.8806 51.4631C81.8981 51.7328 82.0143 51.9433 82.2291 52.0945C82.444 52.2458 82.7268 52.3214 83.0776 52.3214C83.4393 52.3214 83.7391 52.2398 83.977 52.0764C84.2148 51.9131 84.3338 51.6747 84.3338 51.3612C84.3338 51.0784 84.2378 50.8504 84.046 50.6772C83.8542 50.504 83.6125 50.4152 83.3209 50.4108L82.4396 50.4108L82.4396 49.8748L83.311 49.8748C83.6114 49.8573 83.8394 49.7756 83.995 49.6298C84.1507 49.484 84.2285 49.2927 84.2285 49.056C84.2285 48.7863 84.1332 48.5698 83.9424 48.4065C83.7517 48.2432 83.493 48.1615 83.1664 48.1615C82.8353 48.1615 82.5602 48.2426 82.3409 48.4049C82.1217 48.5671 82.0055 48.7754 81.9924 49.0297L81.3774 49.0297C81.3884 48.7556 81.4706 48.5139 81.6241 48.3046C81.7775 48.0952 81.9852 47.9313 82.2472 47.8129C82.5092 47.6945 82.8068 47.6353 83.14 47.6353C83.482 47.6353 83.7791 47.6967 84.0312 47.8195C84.2833 47.9423 84.4785 48.1094 84.6166 48.321C84.7547 48.5326 84.8237 48.7721 84.8237 49.0395C84.8237 49.318 84.747 49.5465 84.5936 49.7252C84.4401 49.9038 84.2461 50.0294 84.0115 50.1017L84.0115 50.151C84.279 50.1795 84.4987 50.3083 84.6708 50.5374C84.8429 50.7665 84.929 51.0411 84.929 51.3612C84.929 51.6593 84.8512 51.9208 84.6955 52.1455C84.5398 52.3702 84.3239 52.545 84.0477 52.67C83.7714 52.795 83.4514 52.8574 83.0874 52.8574C82.7388 52.8574 82.4286 52.7988 82.1568 52.6815C81.8849 52.5642 81.6701 52.4009 81.5122 52.1915C81.3544 51.9822 81.27 51.7394 81.259 51.4631L81.259 51.4631ZM77.8423 52.8674C77.5376 52.8674 77.2592 52.8076 77.007 52.6881C76.7549 52.5687 76.5543 52.3955 76.4053 52.1686C76.2562 51.9417 76.1816 51.666 76.1816 51.3415C76.1816 51.0083 76.2639 50.7436 76.4283 50.5473C76.5927 50.3511 76.8212 50.2026 77.1139 50.1018C77.4066 50.0009 77.7426 49.9275 78.1218 49.8814C78.5471 49.8288 78.8738 49.7811 79.1018 49.7384C79.3298 49.6956 79.4438 49.5789 79.4438 49.3882L79.4438 49.2698C79.4438 48.9234 79.3413 48.6515 79.1363 48.4542C78.9314 48.2569 78.637 48.1583 78.2534 48.1583C77.8895 48.1583 77.5929 48.2383 77.3638 48.3983C77.1348 48.5584 76.9742 48.7469 76.8821 48.9639L76.3263 48.7633C76.4403 48.4871 76.5982 48.2662 76.7999 48.1007C77.0016 47.9352 77.2274 47.8157 77.4773 47.7423C77.7272 47.6688 77.9804 47.6321 78.2369 47.6321C78.4299 47.6321 78.6305 47.6573 78.8387 47.7077C79.047 47.7582 79.2416 47.8453 79.4224 47.9692C79.6033 48.093 79.7496 48.2646 79.8615 48.4838C79.9733 48.7031 80.0292 48.9826 80.0292 49.3224L80.0292 52.7523L79.4438 52.7523L79.4438 51.9532L79.4076 51.9532C79.3024 52.1768 79.1204 52.3851 78.8618 52.578C78.6031 52.7709 78.2632 52.8674 77.8423 52.8674L77.8423 52.8674ZM77.9212 52.3313C78.2325 52.3313 78.5022 52.2628 78.7302 52.1258C78.9582 51.9888 79.1341 51.8052 79.258 51.575C79.3819 51.3448 79.4438 51.0916 79.4438 50.8153L79.4438 50.0853C79.3868 50.1401 79.2794 50.1878 79.1215 50.2283C78.9637 50.2689 78.7921 50.3023 78.6069 50.3286C78.4216 50.3549 78.2599 50.3769 78.1218 50.3944C77.6943 50.447 77.3616 50.5457 77.1238 50.6904C76.8859 50.8351 76.767 51.0609 76.767 51.3678C76.767 51.6725 76.8766 51.9093 77.0958 52.0781C77.315 52.2469 77.5902 52.3313 77.9212 52.3313L77.9212 52.3313ZM70.8773 54.6464L70.8773 47.7012L71.4462 47.7012L71.4462 48.6647L71.5153 48.6647C71.5854 48.5134 71.6814 48.3583 71.803 48.1994C71.9247 48.0404 72.0875 47.9062 72.2914 47.7965C72.4953 47.6869 72.7518 47.6321 73.0609 47.6321C73.4774 47.6321 73.8419 47.7412 74.1543 47.9593C74.4667 48.1774 74.71 48.4822 74.8843 48.8735C75.0586 49.2648 75.1458 49.7203 75.1458 50.2399C75.1458 50.7616 75.0586 51.2187 74.8843 51.6112C74.71 52.0036 74.4667 52.3094 74.1543 52.5287C73.8419 52.7479 73.4796 52.8575 73.0674 52.8575C72.7627 52.8575 72.5079 52.8027 72.3029 52.6931C72.0979 52.5835 71.9324 52.4481 71.8063 52.2869C71.6803 52.1258 71.5832 51.9685 71.5153 51.8151L71.4627 51.8151L71.4627 54.6464L70.8773 54.6464ZM71.4562 50.23C71.4562 50.6356 71.517 50.9962 71.6387 51.3119C71.7604 51.6276 71.9363 51.8748 72.1665 52.0535C72.3967 52.2321 72.674 52.3215 72.9985 52.3215C73.3339 52.3215 73.6178 52.2288 73.8502 52.0436C74.0826 51.8583 74.2591 51.6079 74.3796 51.2922C74.5002 50.9765 74.5605 50.6224 74.5605 50.23C74.5605 49.8419 74.5008 49.4923 74.3813 49.181C74.2618 48.8697 74.0864 48.6225 73.8551 48.4394C73.6238 48.2564 73.3383 48.1648 72.9985 48.1648C72.6696 48.1648 72.3901 48.2531 72.1599 48.4295C71.9297 48.606 71.7549 48.8494 71.6354 49.1596C71.5159 49.4698 71.4562 49.8266 71.4562 50.23L71.4562 50.23ZM69.1115 45.807L69.4173 46.1786C69.2419 46.3474 69.0259 46.4493 68.7694 46.4844C68.5129 46.5195 68.2247 46.5425 67.9046 46.5535C67.8432 46.5557 67.7802 46.5578 67.7155 46.56C67.6508 46.5622 67.5856 46.5644 67.5198 46.5666C66.9323 46.5951 66.5004 46.8083 66.2242 47.2062C65.9479 47.6041 65.7857 48.1736 65.7375 48.9146L65.8032 48.9146C65.972 48.5704 66.2105 48.3084 66.5185 48.1286C66.8265 47.9489 67.1658 47.859 67.5363 47.859C67.9243 47.859 68.2734 47.9538 68.5836 48.1434C68.8939 48.3331 69.1394 48.6104 69.3203 48.9754C69.5011 49.3404 69.5916 49.7849 69.5916 50.3089C69.5916 50.8263 69.5006 51.2763 69.3186 51.6588C69.1367 52.0414 68.8823 52.3368 68.5557 52.5451C68.229 52.7533 67.8465 52.8575 67.408 52.8575C66.7459 52.8575 66.2148 52.6262 65.8147 52.1636C65.4146 51.701 65.2146 51.0247 65.2146 50.1346L65.2146 49.6052C65.2146 48.4279 65.4009 47.5422 65.7736 46.9481C66.1463 46.354 66.7196 46.0437 67.4935 46.0174C67.5878 46.0131 67.6788 46.0109 67.7665 46.0109C67.8541 46.0109 67.9375 46.0109 68.0164 46.0109C68.2575 46.0109 68.4696 46.0026 68.6527 45.9862C68.8358 45.9698 68.9887 45.91 69.1115 45.807L69.1115 45.807ZM67.408 52.3214C67.8991 52.3214 68.2882 52.1384 68.5754 51.7723C68.8626 51.4061 69.0062 50.9183 69.0062 50.3089C69.0062 49.706 68.8615 49.2363 68.5721 48.8998C68.2827 48.5632 67.8991 48.395 67.4212 48.395C67.0879 48.395 66.8013 48.4788 66.5612 48.6466C66.3212 48.8143 66.1359 49.045 66.0055 49.3388C65.875 49.6326 65.8076 49.9669 65.8032 50.3418C65.8032 50.9534 65.9463 51.4363 66.2324 51.7903C66.5185 52.1444 66.9103 52.3214 67.408 52.3214L67.408 52.3214ZM61.9656 52.8575C61.5293 52.8575 61.144 52.7468 60.8097 52.5254C60.4753 52.3039 60.2139 51.9976 60.0254 51.6062C59.8368 51.2149 59.7426 50.7627 59.7426 50.2497C59.7426 49.7324 59.8368 49.2774 60.0254 48.885C60.2139 48.4926 60.4753 48.1857 60.8097 47.9642C61.144 47.7428 61.5293 47.6321 61.9656 47.6321C62.4018 47.6321 62.7871 47.7428 63.1215 47.9642C63.4558 48.1857 63.7172 48.4926 63.9058 48.885C64.0943 49.2774 64.1886 49.7324 64.1886 50.2497C64.1886 50.7627 64.0943 51.2149 63.9058 51.6062C63.7172 51.9976 63.4558 52.3039 63.1215 52.5254C62.7871 52.7468 62.4018 52.8575 61.9656 52.8575L61.9656 52.8575ZM61.9657 52.3215C62.3164 52.3215 62.613 52.2272 62.8552 52.0387C63.0975 51.8501 63.2822 51.5991 63.4093 51.2856C63.5365 50.9721 63.6 50.6268 63.6 50.2497C63.6 49.8726 63.5365 49.5263 63.4093 49.2106C63.2822 48.8949 63.0975 48.6417 62.8552 48.4509C62.613 48.2602 62.3164 48.1648 61.9657 48.1648C61.6171 48.1648 61.3211 48.2602 61.0778 48.4509C60.8344 48.6417 60.6492 48.8949 60.522 49.2106C60.3949 49.5263 60.3313 49.8726 60.3313 50.2497C60.3313 50.6268 60.3949 50.9721 60.522 51.2856C60.6492 51.5991 60.8344 51.8501 61.0778 52.0387C61.3211 52.2272 61.6171 52.3215 61.9657 52.3215L61.9657 52.3215Z" id="образовательный-центр" fill="#6AB6E5" stroke="none" />
    <path d="M156.479 13.2882L164.549 13.2882L170.099 26.8156L170.379 26.8156L175.93 13.2882L184 13.2882L184 37.171L177.656 37.171L177.656 23.3638L177.47 23.3638L172.152 36.9844L168.327 36.9844L163.009 23.2705L162.823 23.2705L162.823 37.171L156.479 37.171L156.479 13.2882ZM153.493 25.2296C153.493 27.8884 152.976 30.1294 151.942 31.9525C150.908 33.7756 149.513 35.1555 147.756 36.0923C145.999 37.0291 144.04 37.4975 141.879 37.4975C139.702 37.4975 137.737 37.0252 135.984 36.0807C134.231 35.1361 132.839 33.7522 131.809 31.9292C130.779 30.1061 130.264 27.8729 130.264 25.2296C130.264 22.5708 130.779 20.3298 131.809 18.5068C132.839 16.6837 134.231 15.3037 135.984 14.3669C137.737 13.4301 139.702 12.9617 141.879 12.9617C144.04 12.9617 145.999 13.4301 147.756 14.3669C149.513 15.3037 150.908 16.6837 151.942 18.5068C152.976 20.3298 153.493 22.5708 153.493 25.2296L153.493 25.2296ZM146.823 25.2296C146.823 23.0839 146.401 21.4435 145.558 20.3085C144.714 19.1734 143.488 18.6059 141.879 18.6059C140.269 18.6059 139.043 19.1734 138.199 20.3085C137.356 21.4435 136.934 23.0839 136.934 25.2296C136.934 27.3754 137.356 29.0157 138.199 30.1508C139.043 31.2859 140.269 31.8534 141.879 31.8534C143.488 31.8534 144.714 31.2859 145.558 30.1508C146.401 29.0157 146.823 27.3754 146.823 25.2296L146.823 25.2296ZM105.728 37.171L105.728 13.2882L112.212 13.2882L112.212 22.6174L120.794 22.6174L120.794 13.2882L127.278 13.2882L127.278 37.171L120.794 37.171L120.794 27.8418L112.212 27.8418L112.212 37.171L105.728 37.171ZM81.9849 13.2882L88.4687 13.2882L88.4687 25.7894L88.6553 25.7894L97.1448 13.2882L102.649 13.2882L102.649 37.171L96.1653 37.171L96.1653 24.6232L96.0253 24.6232L87.3958 37.171L81.9849 37.171L81.9849 13.2882ZM60.761 37.171L60.761 13.2882L77.5536 13.2882L77.5536 18.5126L67.2448 18.5126L67.2448 21.3113L69.6704 21.3113C71.6762 21.3113 73.4312 21.634 74.9356 22.2792C76.4399 22.9245 77.6099 23.8341 78.4457 25.008C79.2814 26.182 79.6993 27.5619 79.6993 29.1479C79.6993 30.7338 79.2814 32.1293 78.4457 33.3344C77.6099 34.5394 76.4399 35.4801 74.9356 36.1564C73.4312 36.8328 71.6762 37.171 69.6704 37.171L60.761 37.171ZM67.2448 32.0866L69.6703 32.0866C70.8365 32.0866 71.7267 31.8048 72.3408 31.2412C72.955 30.6775 73.2621 29.9642 73.2621 29.1013C73.2621 28.285 72.955 27.6067 72.3408 27.0663C71.7267 26.526 70.8365 26.2559 69.6703 26.2559L67.2448 26.2559L67.2448 32.0866Z" id="БИНОМ" fill="#16197A" stroke="none" />
  </g>
</svg>