<?xml version="1.0" encoding="utf-8"?>
<svg width="35.67627px" height="51px" viewBox="0 0 35.67627 51" version="1.1" xmlns:xlink="http://www.w3.org/1999/xlink" xmlns="http://www.w3.org/2000/svg">
  <path d="M8.85938 2.39453C11.5728 0.79834 14.5659 0 17.8379 0C21.1104 0 24.1035 0.79834 26.8169 2.39453C29.5308 3.99072 31.6855 6.14551 33.2817 8.85938C34.8779 11.5728 35.6763 14.5259 35.6763 17.7183C35.6763 20.9106 34.7583 24.582 32.9224 28.7324C31.4063 32.0049 29.3711 35.5962 26.8169 39.5068C24.9014 42.2207 22.8262 44.9741 20.5913 47.7676L17.8379 51L15.0845 47.7676C12.8496 44.9741 10.7744 42.2207 8.85938 39.5068C6.30518 35.5962 4.27002 32.0049 2.75342 28.7324C0.917969 24.582 0 20.9106 0 17.7183C0 14.5259 0.79834 11.5728 2.39453 8.85938C3.99072 6.14551 6.14551 3.99072 8.85938 2.39453L8.85938 2.39453ZM13.3486 22.3276C14.5854 23.5649 16.082 24.1831 17.8379 24.1831C19.5938 24.1831 21.0903 23.5649 22.3276 22.3276C23.5645 21.0908 24.1831 19.5942 24.1831 17.8384C24.1831 16.0825 23.5645 14.5859 22.3276 13.3486C21.0903 12.1118 19.5938 11.4932 17.8379 11.4932C16.082 11.4932 14.5854 12.1118 13.3486 13.3486C12.1113 14.5859 11.4932 16.0825 11.4932 17.8384C11.4927 19.5942 12.1113 21.0908 13.3486 22.3276L13.3486 22.3276Z" id="Vector" fill="#00B978" stroke="none" />
</svg>