<?xml version="1.0" encoding="utf-8"?>
<svg width="127.5px" height="70.51196px" viewBox="0 0 127.5 70.51196" version="1.1" xmlns:xlink="http://www.w3.org/1999/xlink" xmlns="http://www.w3.org/2000/svg">
  <g id="Group-Copy-20">
    <path d="M0 70.5115L127.5 70.5115L127.5 0.000114441L0 0.000114441L0 70.5115Z" id="Mask-Copy" fill="none" fill-rule="evenodd" stroke="none" />
    <path d="M0 4.72769L0 0.000488281L23.6294 0.000488281L7.39053 9.02523C6.63827 9.44734 5.78744 9.665 4.92293 9.6584C4.05842 9.65085 3.21325 9.41905 2.46618 8.98467C1.72053 8.55124 1.09938 7.93033 0.665949 7.18397C0.234874 6.4369 0.00424472 5.59007 0 4.72769L0 4.72769ZM25.7843 4.83451L34.4728 0.000488281L58.0861 0.000488281L58.0861 30.3031C58.0861 31.3298 57.8121 32.3391 57.2895 33.2237C56.7665 34.1084 56.0171 34.8378 55.1148 35.3347L46.5834 40.0645C44.7058 41.1122 43.1405 42.6399 42.0534 44.4927C40.9648 46.3455 40.3923 48.4544 40.3946 50.6025L40.3946 55.674C40.3946 58.7229 38.2326 62.3967 35.5637 63.8792L23.6294 70.5118L0 70.5118L0 48.5754C0.00141491 39.6546 2.39166 30.8961 6.92172 23.2068C11.457 15.5133 17.9684 9.16955 25.7843 4.83451L25.7843 4.83451ZM63.6184 4.70764L63.6184 0.000488281L87.2308 0.000488281L70.9481 9.05966C70.1916 9.4688 69.3422 9.67514 68.4833 9.6584C67.624 9.64071 66.784 9.40089 66.0454 8.9625C65.3064 8.52364 64.6947 7.90061 64.2679 7.15496C63.8438 6.4093 63.6198 5.56578 63.6184 4.70764L63.6184 4.70764ZM86.1409 6.63262L98.0742 0.000488281L121.705 0.000488281L121.705 21.9212C121.706 30.8471 119.315 39.6115 114.783 47.3048C110.248 54.9983 103.736 61.3421 95.9202 65.6774L87.2308 70.5118L63.6184 70.5118L63.6184 40.2088C63.6184 39.1818 63.8924 38.1725 64.415 37.288C64.938 36.4034 65.6875 35.6738 66.5897 35.1769L75.1211 30.4474C76.9987 29.3996 78.5641 27.8718 79.6512 26.0192C80.7397 24.1664 81.3123 22.0575 81.3099 19.9094L81.3099 14.8379C81.3099 11.789 83.4719 8.11521 86.1409 6.63262L86.1409 6.63262ZM58.086 65.8042L58.086 70.5119L34.4727 70.5119L50.7563 61.4522C51.5128 61.0428 52.3623 60.8365 53.2211 60.8535C54.0804 60.8709 54.9204 61.111 55.659 61.5491C56.398 61.9882 57.0097 62.611 57.4366 63.3569C57.8606 64.1026 58.0846 64.9459 58.086 65.8042L58.086 65.8042ZM121.705 65.784L121.705 70.5119L98.0742 70.5119L114.314 61.4867C115.066 61.0646 115.917 60.8467 116.782 60.8535C117.646 60.8608 118.491 61.0929 119.238 61.527C119.984 61.9607 120.605 62.5816 121.039 63.3279C121.47 64.075 121.7 64.9218 121.705 65.784L121.705 65.784Z" id="Vector" fill="#FFFFFF" fill-rule="evenodd" stroke="none" />
  </g>
</svg>