<?xml version="1.0" encoding="utf-8"?>
<svg width="25px" height="25px" viewBox="0 0 25 25" version="1.1" xmlns:xlink="http://www.w3.org/1999/xlink" xmlns="http://www.w3.org/2000/svg">
  <path d="M19.987 10.8073C18.9887 12.7604 17.6975 14.5291 16.1133 16.1133C14.5291 17.6975 12.7604 18.9887 10.8073 19.987L7.74741 16.9271C7.35678 16.5365 6.87933 16.428 6.31509 16.6016C4.75259 17.1224 3.1033 17.3828 1.36719 17.3828C0.976563 17.3828 0.651031 17.513 0.390625 17.7734C0.130219 18.0339 0 18.3594 0 18.75L0 23.6328C0 24.0234 0.130219 24.349 0.390625 24.6094C0.651031 24.8698 0.976563 25 1.36719 25C4.49219 25 7.50867 24.4032 10.4167 23.2096C13.3246 22.0161 15.8854 20.3125 18.099 18.099C20.3125 15.8854 22.0161 13.3247 23.2096 10.4167C24.4032 7.50868 25 4.49219 25 1.36719C25 0.976563 24.8698 0.651041 24.6094 0.390625C24.349 0.130209 24.0234 0 23.6328 0L18.75 0C18.3594 0 18.0338 0.130209 17.7734 0.390625C17.513 0.651041 17.3828 0.976563 17.3828 1.36719C17.3828 3.1033 17.1224 4.75261 16.6016 6.31511C16.4279 6.87934 16.5365 7.35677 16.9271 7.74739L19.987 10.8073Z" id="ó°²" fill="#16197A" fill-rule="evenodd" stroke="none" />
</svg>